<?xml version="1.0" encoding="UTF-8" standalone="no"?>
<svg
   xmlns:osb="http://www.openswatchbook.org/uri/2009/osb"
   xmlns:dc="http://purl.org/dc/elements/1.1/"
   xmlns:cc="http://creativecommons.org/ns#"
   xmlns:rdf="http://www.w3.org/1999/02/22-rdf-syntax-ns#"
   xmlns:svg="http://www.w3.org/2000/svg"
   xmlns="http://www.w3.org/2000/svg"
   xmlns:sodipodi="http://sodipodi.sourceforge.net/DTD/sodipodi-0.dtd"
   xmlns:inkscape="http://www.inkscape.org/namespaces/inkscape"
   width="210mm"
   height="297mm"
   viewBox="0 0 210 297"
   version="1.1"
   id="svg8"
   inkscape:version="1.0.1 (3bc2e813f5, 2020-09-07)"
   sodipodi:docname="sign.svg">
  <defs
     id="defs2">
    <inkscape:path-effect
       effect="roughen"
       id="path-effect3275"
       is_visible="true"
       lpeversion="1"
       method="size"
       max_segment_size="0.226433"
       segments="2"
       displace_x="10;1"
       displace_y="10;1"
       global_randomize="1;1"
       handles="along"
       shift_nodes="true"
       fixed_displacement="true"
       spray_tool_friendly="true" />
    <inkscape:path-effect
       effect="roughen"
       id="path-effect3256"
       is_visible="true"
       lpeversion="1"
       method="size"
       max_segment_size="0.226433"
       segments="2"
       displace_x="10;1"
       displace_y="10;1"
       global_randomize="1;1"
       handles="along"
       shift_nodes="true"
       fixed_displacement="true"
       spray_tool_friendly="true" />
    <linearGradient
       id="linearGradient3099"
       osb:paint="solid">
      <stop
         style="stop-color:#d38d5f;stop-opacity:1;"
         offset="0"
         id="stop3097" />
    </linearGradient>
  </defs>
  <sodipodi:namedview
     id="base"
     pagecolor="#ffffff"
     bordercolor="#666666"
     borderopacity="1.0"
     inkscape:pageopacity="0.0"
     inkscape:pageshadow="2"
     inkscape:zoom="3.3158201"
     inkscape:cx="202.96079"
     inkscape:cy="180.91681"
     inkscape:document-units="mm"
     inkscape:current-layer="layer1"
     inkscape:document-rotation="0"
     showgrid="false"
     inkscape:window-width="2560"
     inkscape:window-height="1409"
     inkscape:window-x="0"
     inkscape:window-y="30"
     inkscape:window-maximized="1" />
  <metadata
     id="metadata5">
    <rdf:RDF>
      <cc:Work
         rdf:about="">
        <dc:format>image/svg+xml</dc:format>
        <dc:type
           rdf:resource="http://purl.org/dc/dcmitype/StillImage" />
        <dc:title></dc:title>
      </cc:Work>
    </rdf:RDF>
  </metadata>
  <g
     inkscape:label="Layer 1"
     inkscape:groupmode="layer"
     id="layer1">
    <rect
       style="fill:#daac7a;fill-opacity:1;stroke:#ad5c1b;stroke-width:0.165;stroke-linecap:round;stroke-linejoin:round;stroke-miterlimit:4;stroke-dasharray:0.33, 0.165;stroke-dashoffset:0;stroke-opacity:1"
       id="rect3304"
       width="4.1017766"
       height="44.00285"
       x="36.453945"
       y="34.64328" />
    <rect
       style="fill:#daac7a;fill-opacity:1;stroke:#ad5c1b;stroke-width:0.165;stroke-linecap:round;stroke-linejoin:round;stroke-miterlimit:4;stroke-dasharray:0.329999, 0.165;stroke-dashoffset:0;stroke-opacity:1"
       id="rect3304-1"
       width="4.1017766"
       height="44.00285"
       x="66.7332"
       y="34.68232" />
    <path
       id="rect835"
       style="fill:#daac7a;fill-opacity:1;stroke:#ad5c1b;stroke-width:0.165;stroke-linecap:round;stroke-linejoin:round;stroke-dasharray:0.33,0.165;stroke-opacity:1;stroke-miterlimit:4;stroke-dashoffset:0"
       d="m 26.210941,23.000515 0.271172,0.07518 0.103426,0.009 0.192413,0.03699 0.391104,0.06539 0.09784,0.0036 0.185071,0.01671 0.418633,0.02574 0.101587,0.0342 0.171144,-0.02878 0.203273,0.0054 0.425793,-0.04944 0.103344,0.03446 0.199033,0.06461 0.188069,0.01747 0.21192,0.0026 0.267308,-0.09135 0.338469,-0.08519 0.216822,0.04482 0.248167,0.01682 0.114454,-0.02011 0.344109,-0.06581 0.126834,-0.04187 0.173961,0.01177 0.212036,0.02811 0.429123,-0.03698 0.08714,-0.01895 0.349337,0.01593 0.185511,0.01127 0.222012,0.04427 0.191945,0.06126 0.208507,-0.07308 0.163304,0.0266 0.247921,-0.08566 0.186428,-0.0051 0.42526,-0.0115 0.159425,-0.01023 0.125897,0.0104 0.384018,-0.0036 0.169402,-0.01931 0.245134,-0.024 0.151989,0.05392 0.322028,0.01875 0.195434,0.01117 0.23434,-0.02073 0.174465,0.05673 0.276768,-0.051 0.228773,0.0095 0.123559,-0.03268 0.284604,-0.09 0.158927,0.04534 0.372476,0.02607 0.178975,-0.01398 0.122277,0.002 0.213386,0.06106 0.399874,-0.01251 0.127016,0.04234 0.298612,-0.02239 0.105741,0.01703 0.321994,0.07837 0.119756,-0.0018 0.194082,-0.02545 0.213271,-0.01493 0.430555,0.04851 0.159377,0.02795 0.133487,-0.022 0.376548,0.03495 0.181935,0.01192 0.223608,0.04381 0.247129,-0.0069 0.110071,-0.0058 0.369661,-0.03186 0.093,-0.01156 0.180642,-0.0053 0.401852,0.06083 0.112314,-0.03778 0.339561,-0.01412 0.09626,0.0112 0.1837,-0.0207 0.411508,-0.04243 0.171883,-0.0088 0.192149,0.06027 0.147083,0.01262 0.322823,-0.09771 0.137114,0.01961 0.363534,-0.06431 0.111062,-0.02909 0.337828,0.05639 0.208336,-0.01112 0.233363,-0.0046 0.124681,0.03514 0.355041,-0.03024 0.100073,-0.023 0.1938,0.04989 0.227483,0.06797 0.399598,7.25e-4 0.116306,-0.04147 0.26317,-0.07481 0.136746,-0.02261 0.21583,-0.0628 0.216491,-0.05493 0.215976,0.04422 0.425237,-0.01646 0.08229,-0.01055 0.187038,-0.04033 0.204945,-0.01667 0.427572,-0.03935 0.0848,0.0092 0.35466,-0.01677 0.09573,-0.01505 0.351957,0.03977 0.192255,0.0032 0.152865,0.05468 0.292846,-0.07192 0.124162,-0.0057 0.380583,0.02722 0.177207,0.0093 0.241238,-0.01554 0.134216,0.04564 0.184329,0.04365 0.257765,-0.08966 0.188677,-0.03569 0.210773,0.03296 0.4279,-0.02908 0.08405,-0.01137 0.192863,-0.04827 0.285245,-0.0961 0.230141,0.08327 0.174301,0.04978 0.194297,-0.01484 0.214815,-0.0074 0.430657,-0.05027 0.08825,-0.0099 0.295579,0.08847 0.158457,-0.05131 0.187432,0.04333 0.207416,-0.02659 0.424101,0.04435 0.163295,0.01958 0.244878,0.02923 0.113246,0.0053 0.210369,0.06218 0.376046,-0.06059 0.198815,0.0034 0.215159,0.04576 0.249971,8.36e-4 0.21509,0.01988 0.21545,-0.04151 0.245967,0.01879 0.222194,-0.0014 0.128686,0.03907 0.296668,0.08566 0.134594,0.01841 0.215715,-0.06253 0.391969,-0.04018 0.09343,0.01763 0.18021,0.01748 0.415627,-0.0248 0.100987,0.03442 0.172134,-0.02904 0.314331,-0.100296 0.145497,-0.0055 0.394015,-0.02643 0.158594,-0.03333 0.266111,-0.0076 0.107486,-0.0045 0.194475,-0.03438 0.320666,-0.09938 0.218024,-0.06937 0.302896,-0.02919 0.20662,0.02629 0.118385,-0.0016 0.361678,-0.04932 0.198509,0.02752 0.239343,0.0049 0.205009,0.04461 0.243638,0.02642 0.202658,-0.03909 0.256117,-0.0082 0.1217,-0.03001 0.212987,0.07765 0.329801,0.08594 0.203891,-0.04506 0.251593,-0.03266 0.121233,-0.01961 0.371676,-0.01118 0.09669,0.02665 0.267102,0.09535 0.273603,0.05323 0.222417,0.02446 0.127386,0.03787 0.351628,0.04478 0.10867,0.03329 0.340568,-0.03682 0.101033,-0.01201 0.353247,0.04942 0.189954,-0.02149 0.139894,-0.04115 0.185953,-0.02699 0.208295,0.01138 0.42999,-0.04074 0.158554,-0.02724 0.18494,0.06911 0.3014,0.04743 0.117171,-0.03012 0.238663,0.08854 0.177902,-0.03334 0.237274,-0.07292 0.332785,0.09694 0.126141,0.01483 0.191954,0.01202 0.214298,7.01e-4 0.334921,0.112856 0.245854,0.07024 0.165509,-0.05877 0.338161,0.05083 0.20837,0.0077 0.117343,0.0026 0.371014,0.03327 0.188497,0.0051 0.133424,0.03216 0.314879,-0.09299 0.155141,-0.05838 0.171468,0.02206 0.215981,-0.05178 0.222467,0.04587 0.22877,0.04862 0.414929,0.04253 0.09409,0.0119 0.223074,-0.08909 0.183167,-0.03648 0.391193,-0.06677 0.134662,-0.0466 0.309083,0.0331 0.132548,-0.04556 0.316739,-0.03935 0.118286,-0.02594 0.185963,-0.01551 0.341008,0.123058 0.151416,0.05291 0.177142,-0.01186 0.283321,0.09676 0.354073,-0.03444 0.169209,0.01778 0.262887,-0.02749 0.20536,-0.005 0.155061,-0.113705 0.07029,0.198393 -0.06991,0.298124 0.05632,0.158977 -0.08153,0.240688 -0.07069,0.253496 -0.05415,0.235777 0.03499,0.135391 -0.0903,0.286549 -0.06996,0.220516 0.03218,0.291277 -0.04834,0.168033 -0.059,0.24804 0.06554,0.17608 0.07415,0.201824 0.08872,0.247603 0.07781,0.216451 -0.07827,0.225406 0.07764,0.214601 0.08001,0.223971 -0.0721,0.296717 0.0089,0.121099 0.08849,0.248637 0.08311,0.283296 0.06583,0.196654 -0.07378,0.262276 0.02523,0.134467 0.08147,0.240061 0.07951,0.235644 0.02674,0.180506 0.09593,0.300812 0.0578,0.281276 -0.06358,0.201919 -0.06177,0.164961 0.06083,0.313118 0.04562,0.145328 0.07172,0.286041 -0.07399,0.201825 0.06534,0.212133 -0.07459,0.277699 0.03206,0.131851 -0.06696,0.201803 0.06203,0.224892 0.08751,0.301662 -0.07777,0.258238 0.04549,0.219156 0.05625,0.186506 -0.0818,0.277306 -0.0624,0.204776 0.04581,0.157727 -0.100017,0.264625 0.06306,0.200457 -0.05243,0.319238 0.03192,0.183279 -0.0029,0.258796 0.04593,0.170083 -0.08333,0.216513 0.05713,0.253562 0.05453,0.180539 -0.09541,0.249067 0.06189,0.210249 0.02888,0.301472 0.04024,0.184108 -0.07962,0.227524 0.03672,0.151352 0.05113,0.336084 0.03356,0.136415 -0.04326,0.179191 -0.123281,0.302448 -0.06466,0.260814 -0.06177,0.191259 -0.0671,0.230088 -0.06147,0.158263 -0.08605,0.225285 -0.08504,0.259573 0.06779,0.191403 -0.08279,0.228614 0.02829,0.317341 0.04696,0.133491 0.07747,0.246638 -0.05808,0.169258 0.08701,0.282111 0.06534,0.211947 -0.08547,0.274422 -0.06787,0.185953 0.06698,0.202697 0.06622,0.214334 -0.103446,0.261012 0.06311,0.234908 -0.0809,0.19473 -0.06131,0.178739 0.09061,0.282494 -0.07916,0.261725 0.055,0.206 -0.07289,0.238061 0.05487,0.162584 0.04876,0.197145 -0.126124,0.278644 0.07133,0.253419 0.0427,0.178433 0.02399,0.28066 -0.0907,0.111183 -0.302109,-1.1e-4 -0.120337,0.0401 -0.171672,0.0053 -0.414623,0.01851 -0.162086,-0.01653 -0.228404,0.04882 -0.241201,-0.03056 -0.114893,-0.003 -0.374708,0.02672 -0.181071,0.0011 -0.121894,-0.01105 -0.309318,-0.09245 -0.271043,-5.8e-4 -0.135089,0.04759 -0.174713,0.03557 -0.40235,-0.01019 -0.09125,0.02329 -0.174678,-0.0057 -0.209878,0.01282 -0.22029,-0.0034 -0.326783,-0.111846 -0.314567,0.01139 -0.191408,0.02491 -0.243812,0.01131 -0.214036,0.02854 -0.234164,0.02255 -0.118502,0.02167 -0.201936,0.05154 -0.203226,0.0083 -0.223717,-0.03404 -0.425699,0.05492 -0.172615,-0.01556 -0.123903,-0.0063 -0.37782,0.03366 -0.120123,0.04212 -0.322989,0.01722 -0.188981,-0.02691 -0.123836,0.0079 -0.374853,0.03906 -0.182454,0.01808 -0.215699,0.05176 -0.196957,0.06407 -0.25018,0.06981 -0.253977,-0.04734 -0.23396,-9.2e-4 -0.199873,-0.04742 -0.255357,0.01945 -0.115081,0.02107 -0.189798,-0.03162 -0.218656,0.0414 -0.245912,0.073 -0.405387,-0.01256 -0.160674,-0.02355 -0.254247,0.0034 -0.216618,0.0092 -0.115617,-0.0024 -0.373485,0.02959 -0.09213,0.0013 -0.341365,0.05661 -0.210468,-0.01509 -0.229669,0.01802 -0.114985,-0.006 -0.345912,-0.07452 -0.211577,0.02209 -0.187432,0.05686 -0.177845,-0.06295 -0.187123,0.03771 -0.405302,0.02196 -0.08554,-3e-4 -0.183841,0.02424 -0.410116,-0.04105 -0.170734,-0.0057 -0.244817,-0.0093 -0.120978,-0.03448 -0.206438,-0.06644 -0.385064,0.0059 -0.09749,-0.02937 -0.173431,-0.01215 -0.375367,-0.0853 -0.216206,-9.76e-4 -0.22479,-0.02503 -0.11603,8.32e-4 -0.28033,0.09322 -0.154808,-8.22e-4 -0.398061,0.03517 -0.130907,-0.04554 -0.162329,0.03644 -0.390511,0.0014 -0.171968,-0.0048 -0.125894,0.01872 -0.320025,0.08537 -0.257594,-8.1e-5 -0.197589,-0.04291 -0.143434,0.04072 -0.355186,0.03949 -0.107922,-0.03162 -0.352524,-0.01188 -0.181424,0.01538 -0.139732,0.04003 -0.216413,0.06777 -0.191014,0.01161 -0.271991,0.08986 -0.205344,-0.06264 -0.202295,-0.03334 -0.215643,-0.02581 -0.233685,0.04708 -0.379186,0.0883 -0.120583,0.01495 -0.331128,0.07512 -0.124517,0.01476 -0.248237,-0.09463 -0.341229,-0.03195 -0.188246,0.01268 -0.241494,-0.01656 -0.114412,-0.02253 -0.200218,-0.05624 -0.391624,-0.05146 -0.180186,-0.0058 -0.230151,0.03283 -0.125776,-0.03006 -0.368607,0.0195 -0.105126,-0.03484 -0.234658,-0.08717 -0.3294,-0.0064 -0.12084,0.04 -0.180198,0.04057 -0.386641,-0.05239 -0.120334,0.0404 -0.179056,0.04416 -0.390759,-0.02145 -0.116491,-0.04351 -0.298429,0.04706 -0.113125,0.0089 -0.188611,0.0079 -0.28094,0.09304 -0.205233,-0.06899 -0.2871,0.09003 -0.162696,0.02874 -0.391464,0.0234 -0.173492,-0.02493 -0.132525,0.02654 -0.188048,0.0011 -0.423119,0.01938 -0.1663,0.0044 -0.224859,0.04271 -0.127431,-0.01345 -0.195343,0.01397 -0.227175,0.0409 -0.428888,0.01246 -0.13662,-0.0431 -0.147898,0.0253 -0.383906,-0.03592 -0.170788,0.01427 -0.248396,0.01111 -0.222601,-0.01567 -0.12503,-0.04021 -0.210577,0.05867 -0.193238,-0.0074 -0.216277,0.0032 -0.422444,-0.07997 -0.100077,0.02522 -0.175226,0.0052 -0.414168,0.01396 -0.08485,-0.0033 -0.331599,-0.07417 -0.116747,0.02667 -0.181357,0.004 -0.210788,-0.0082 -0.439019,-0.03905 -0.154666,0.0069 -0.129613,0.01279 -0.192775,0.0033 -0.422068,0.02648 -0.09105,0.01429 -0.346972,0.02568 -0.195774,0.0099 -0.123544,0.01035 -0.378894,0.0017 -0.13735,-0.05109 -0.145784,-0.01445 -0.231117,0.06011 -0.204965,-0.04679 -0.222626,-0.06233 -0.413389,0.02704 -0.176662,-0.01382 -0.225872,0.03334 -0.127839,0.01202 -0.199283,-0.05414 -0.411642,-0.01218 -0.164093,0.0031 -0.127579,-0.02862 -0.350357,0.053 -0.196796,0.03705 -0.266921,-0.0114 -0.127815,0.03368 -0.34564,0.01074 -0.09865,-0.02027 -0.34592,0.0349 -0.108954,-0.02929 -0.354137,0.02181 -0.108536,-0.03882 -0.233454,0.06517 -0.177005,-0.01806 -0.212353,0.0042 -0.392389,0.065 -0.11887,-0.02503 -0.187159,-0.01841 -0.3733,0.06414 -0.131911,-0.04779 -0.202383,0.03268 -0.202786,-0.0327 -0.225929,-0.07774 -0.209902,-0.0081 -0.337498,-0.139926 -0.26521,-0.01498 -0.21289,-0.01 -0.174447,0.04436 -0.172859,0.02959 -0.383401,0.009 -0.189697,-0.01775 -0.134819,-0.05959 -0.239763,0.0604 -0.280346,0.05593 -0.294199,-0.01244 -0.208745,-0.01995 -0.115816,-0.03623 -0.358919,-0.06998 -0.176347,-0.01304 -0.241332,-0.0291 -0.109697,-0.0074 -0.187012,-0.01306 -0.261358,0.05046 -0.398752,-0.03179 -0.08941,-0.03773 -0.32565,0.009 -0.111699,-0.03143 -0.192559,-0.09393 -0.18868,-0.03197 -0.420538,-0.02775 -0.1677,-0.03356 -0.117682,-0.0318 -0.224802,0.03427 -0.391658,-0.06531 -0.08179,-0.03957 -0.333059,-0.07756 -0.04755,-0.05086 0.07341,-0.232027 -0.07029,-0.194623 -0.06039,-0.301597 0.03988,-0.20669 -0.06059,-0.170826 -0.07899,-0.247076 0.03738,-0.277619 0.04673,-0.189203 0.01698,-0.259566 0.05337,-0.161653 0.07117,-0.241804 -0.01676,-0.13903 0.01134,-0.19478 0.103636,-0.332464 0.06045,-0.180741 -0.08733,-0.235996 -0.01157,-0.163268 -0.1002,-0.273873 0.01644,-0.336159 0.04264,-0.123588 0.05344,-0.183958 0.09093,-0.28009 0.03123,-0.29797 -0.05543,-0.16031 -0.07035,-0.189213 -0.0617,-0.1917 0.04923,-0.204389 -0.104874,-0.310125 0.05571,-0.260135 0.05195,-0.20797 -0.06528,-0.177253 -0.08112,-0.262371 -0.06651,-0.186243 -0.07464,-0.272449 0.02662,-0.134739 0.09402,-0.298808 0.06504,-0.230154 -0.06896,-0.202897 0.05416,-0.273093 -0.05747,-0.188369 -0.04483,-0.263454 0.05307,-0.149881 0.0768,-0.219704 -0.04052,-0.175405 0.09432,-0.3211 -0.06893,-0.189309 0.0706,-0.264739 -0.0674,-0.2059 -0.05983,-0.171698 -0.08086,-0.30197 -0.05964,-0.170755 -0.07155,-0.272907 0.05737,-0.228356 -0.04674,-0.148309 -0.07763,-0.230692 -0.0678,-0.307786 0.0579,-0.151384 0.08631,-0.227261 0.0354,-0.168973 -0.09437,-0.282186 0.0091,-0.324456 -0.04421,-0.146073 0.07877,-0.239808 0.06643,-0.229976 -0.04676,-0.237817 0.02243,-0.125043 0.03704,-0.19325 -0.05069,-0.399069 0.04725,-0.148176 -0.06786,-0.212577 -0.06889,-0.239304 0.06973,-0.250025 -0.03683,-0.139145 -0.01176,-0.183425 -0.02563,-0.215272 0.117148,-0.295825 0.0562,-0.181563 0.08201,-0.339676 0.05017,-0.144983 -0.08026,-0.28148 0.06397,-0.194327 0.06992,-0.208705 0.02118,-0.313719 -0.0558,-0.146521 0.068,-0.209155 -0.09051,-0.262504 0.05641,-0.230241 0.05813,-0.196372 0.05898,-0.207672 -0.09814,-0.298471 -0.06535,-0.185971 0.05677,-0.226686 0.05402,-0.195155 -0.100664,-0.277504 -0.03788,-0.23139 -0.0049,-0.224552 6.2e-5,-0.223313 0.04686,-0.174066 -0.09967,-0.258391 -0.05741,-0.175405 z"
       inkscape:path-effect="#path-effect3256"
       inkscape:original-d="M 26.183208,23.054707 H 81.880104 V 45.698032 H 26.183208 Z" />
    <path
       style="fill:none;fill-rule:evenodd;stroke:#ad5c1b;stroke-width:0.264583px;stroke-linecap:butt;stroke-linejoin:miter;stroke-opacity:1"
       d="m 26.296416,29.928523 c 0,0 18.597432,4.099684 30.024275,0.413457 24.719879,-7.974476 25.60464,-3.985584 25.60464,-3.985584"
       id="path3245"
       sodipodi:nodetypes="csc" />
    <path
       style="fill:none;fill-rule:evenodd;stroke:#ad5c1b;stroke-width:0.264583px;stroke-linecap:butt;stroke-linejoin:miter;stroke-opacity:1"
       d="m 26.225313,37.455665 c 0,0 5.12434,-2.802144 13.549888,-1.420138 8.425548,1.382004 42.102976,0.408842 42.102976,0.408842"
       id="path3247" />
    <path
       style="fill:none;fill-rule:evenodd;stroke:#ad5c1b;stroke-width:0.264583px;stroke-linecap:butt;stroke-linejoin:miter;stroke-opacity:1"
       d="m 25.99885,41.95931 c 0,0 5.332632,-3.226954 22.92501,-2.124112 17.592376,1.102841 32.866234,0.670033 32.866234,0.670033 v 0"
       id="path3249" />
    <path
       style="fill:none;fill-rule:evenodd;stroke:#ad5c1b;stroke-width:0.264583px;stroke-linecap:butt;stroke-linejoin:miter;stroke-opacity:1"
       d="m 26.11632,26.780037 c 0,0 8.396504,3.056528 21.943824,-0.327833 13.54732,-3.384362 24.242215,-3.442786 24.242215,-3.442786"
       id="path3251" />
    <path
       style="fill:none;fill-rule:evenodd;stroke:#ad5c1b;stroke-width:0.264583px;stroke-linecap:butt;stroke-linejoin:miter;stroke-opacity:1"
       d="m 81.756233,29.662985 c 0,0 -28.086105,3.797827 -14.627972,3.40742 l 14.763344,-0.42827"
       id="path3253"
       sodipodi:nodetypes="csc" />
    <path
       id="rect835-1"
       style="fill:#daac7a;fill-opacity:1;stroke:#ad5c1b;stroke-width:0.165;stroke-linecap:round;stroke-linejoin:round;stroke-dasharray:0.33, 0.16500000000000001;stroke-miterlimit:4;stroke-dashoffset:0;stroke-opacity:1"
       d="m 26.31944,47.122412 0.246991,0.03961 0.142988,0.04981 0.163556,0.03133 0.397714,0.002 0.09627,0.02889 0.212832,0.07276 0.358957,0.02113 0.121222,0.04223 0.187578,-0.05953 0.23415,0.07969 0.336252,-0.07066 0.129847,0.04153 0.17496,0.004 0.212925,0.0264 0.280233,0.09666 0.212251,-0.06888 0.352251,-0.0732 0.195824,0.04077 0.195698,0.06306 0.149841,-0.01024 0.361674,-0.08117 0.129138,-0.0428 0.251305,0.08544 0.173595,0.04568 0.366162,-0.06236 0.107817,-0.02767 0.345764,0.04338 0.195749,0.01745 0.228219,0.03517 0.222853,0.03917 0.123885,-0.01617 0.272019,0.09205 0.212831,-0.07751 0.238871,-0.08525 0.259544,-0.07904 0.273059,-0.01583 0.133241,0.04561 0.33703,-0.0051 0.157746,-0.04549 0.235107,-0.06653 0.134196,9.69e-4 0.312675,0.09511 0.274605,0.01803 0.203412,-0.03173 0.24349,0.001 0.216673,-0.02163 0.232704,0.0089 0.115989,-0.01997 0.371518,-0.01252 0.0927,0.01657 0.328388,0.06446 0.166461,-0.05642 0.196831,0.06848 0.17076,-7.8e-4 0.390166,-0.0701 0.161671,0.04632 0.265463,-0.04823 0.156197,0.05441 0.29933,0.0579 0.155223,-0.05602 0.182357,-0.05568 0.19759,-0.03765 0.359375,0.09325 0.216829,0.0486 0.166973,-0.06025 0.260987,0.0816 0.228998,0.06987 0.286734,0.01162 0.188602,-0.04199 0.133989,-0.02732 0.305265,-0.09512 0.19921,-0.06923 0.160832,-0.03219 0.375015,0.05938 0.128937,-0.04619 0.31041,-0.05099 0.108245,0.0082 0.218183,-0.07085 0.334549,-0.08374 0.232355,-0.02767 0.223955,0.02893 0.172236,0.05879 0.29424,-0.04201 0.115805,0.02786 0.33839,-0.06297 0.126436,-0.04073 0.305461,0.07577 0.241651,-0.0095 0.216627,-0.02389 0.171014,0.05892 0.307647,-0.01412 0.109332,-0.02856 0.2042,0.06314 0.285386,0.09642 0.295124,0.04216 0.15635,-0.05456 0.295189,-0.04599 0.109099,-0.0042 0.188932,-0.01853 0.300072,-0.104729 0.221984,0.07894 0.296945,-0.06764 0.148864,-0.05121 0.217178,-0.07498 0.206545,-0.06401 0.308166,-0.09103 0.191427,0.06953 0.260788,-0.07556 0.203251,-0.06678 0.253838,0.07786 0.239456,0.05977 0.138759,0.03962 0.354597,-0.04601 0.140488,-0.04746 0.284411,0.06442 0.233473,0.01628 0.212898,-0.03409 0.138373,0.04324 0.188456,0.03965 0.235327,-0.07033 0.237979,-0.07543 0.19828,0.03356 0.361427,-0.0928 0.17386,-0.05792 0.228523,-0.075 0.183135,-0.05131 0.276145,0.101093 0.189204,0.06869 0.194228,-0.04694 0.22708,-0.06256 0.375872,-0.06319 0.127956,-0.04015 0.321754,0.06172 0.114503,-0.02566 0.186623,0.03779 0.242247,-0.07118 0.380494,0.0618 0.181852,0.02571 0.236975,0.03535 0.1599,0.05975 0.170853,0.04839 0.296009,-0.09156 0.297037,0.02118 0.153707,0.05408 0.297913,0.0041 0.188273,0.03804 0.228391,-0.04566 0.234405,0.04649 0.205139,-0.05045 0.155907,0.05306 0.360829,0.0072 0.104661,0.03507 0.175678,-0.02347 0.364014,-0.08104 0.153805,0.05808 0.171398,0.04096 0.383638,-0.04499 0.09896,0.02191 0.188473,-0.03452 0.347328,-0.08886 0.151186,-0.04464 0.304345,-0.07517 0.203648,-0.05865 0.289687,-0.02487 0.121191,-0.0294 0.221235,-0.06528 0.32155,-0.07171 0.183644,-0.05433 0.253377,-0.06695 0.252497,0.07995 0.177881,-0.05204 0.321563,-0.0035 0.164441,0.05587 0.272154,-0.0027 0.209219,0.03159 0.206967,0.05836 0.206496,-0.05074 0.271429,-0.03165 0.140308,-0.03711 0.176414,0.02001 0.387463,0.09212 0.153575,-0.03851 0.253396,-0.05273 0.139877,-0.01496 0.348432,-0.05767 0.134603,0.05373 0.29924,0.09729 0.20046,0.06648 0.259404,0.03212 0.127638,0.05131 0.274067,0.09638 0.164308,0.0662 0.265717,-0.07335 0.160602,-0.03002 0.37889,0.0582 0.177055,-0.0078 0.13088,-0.02033 0.237567,-0.06779 0.225596,0.09312 0.359688,-0.0031 0.164643,-0.0314 0.154021,0.05785 0.360729,0.02885 0.09442,-0.01194 0.206862,0.08 0.210281,-0.04845 0.206436,-0.01597 0.396415,0.09913 0.114506,0.0445 0.199719,0.07652 0.218943,-0.06304 0.300135,0.107641 0.267564,0.03643 0.12266,-0.03196 0.325446,0.07794 0.216976,0.02329 0.13237,0.04415 0.323455,0.07199 0.217827,0.02637 0.139468,0.0457 0.325306,-0.0649 0.117607,-0.02773 0.208157,0.06577 0.246307,-0.08705 0.207357,0.06694 0.240416,0.08287 0.298308,0.08554 0.19027,0.05901 0.2424,-0.09775 0.179741,-0.066 0.355053,-0.04314 0.13855,-0.04834 0.307011,0.01564 0.14054,-0.04846 0.252919,-0.07228 0.17398,-0.0468 0.228153,-0.05763 0.350471,0.100972 0.09983,0.02692 0.26806,-0.07159 0.168103,0.06746 0.315755,-0.06449 0.276246,0.09047 0.186869,0.05737 0.215828,0.06364 0.153111,-0.08014 0.01187,0.150663 -0.08989,0.340719 0.04604,0.141915 -0.07626,0.222033 -0.07632,0.312553 -0.04779,0.216856 0.0399,0.139442 -0.06512,0.336681 -0.0208,0.214589 0.01016,0.233478 -0.04357,0.197327 -0.05094,0.230915 0.01486,0.128116 0.03419,0.195535 0.04041,0.215741 0.01878,0.215811 -0.08648,0.269249 0.02658,0.195019 0.07707,0.239298 -0.02189,0.397683 0.02728,0.09392 0.01506,0.17311 0.10144,0.345106 0.05597,0.156524 -0.01228,0.33846 0.02759,0.102325 0.08506,0.237212 0.07338,0.210701 0.07744,0.22477 0.05845,0.201549 0.02569,0.382572 -0.03899,0.158073 -0.06839,0.191089 0.07442,0.240058 0.03158,0.153587 0.06718,0.353692 -0.0039,0.217307 0.05182,0.157839 -0.04213,0.310753 0.0058,0.101917 -0.01683,0.183674 0.07574,0.250212 0.01498,0.388407 -0.04759,0.132815 0.03764,0.279203 0.03753,0.131651 -0.03612,0.347019 -0.03615,0.173133 0.04375,0.149488 -0.05883,0.193073 0.04575,0.212727 -0.03546,0.40982 0.01537,0.158994 0.04499,0.226569 0.05302,0.211889 -0.07337,0.181665 0.03917,0.312046 0.03157,0.124197 -0.09148,0.305451 0.04539,0.149615 0.0093,0.339673 0.03487,0.16695 -0.05097,0.259702 0.04512,0.149652 0.0058,0.324524 0.04061,0.142601 -0.03886,0.159679 -0.08571,0.223948 -0.109605,0.293344 -0.06224,0.253339 -0.05838,0.202861 -0.0456,0.14594 -0.08069,0.224705 -0.0905,0.283247 0.04158,0.154475 -0.06088,0.213267 0.07675,0.365384 0.01113,0.104193 0.09241,0.275108 -0.04566,0.163467 0.093,0.2946 0.02811,0.15483 -0.04671,0.381171 -0.03767,0.160258 0.04675,0.153878 0.08043,0.26003 -0.07134,0.184022 0.04648,0.345828 -0.04571,0.119879 -0.05275,0.182669 0.08209,0.337291 -0.04908,0.246897 -0.0044,0.221174 -0.0525,0.206979 0.03552,0.138333 0.07134,0.249667 -0.08096,0.185025 0.03045,0.366723 0.01337,0.122477 -0.0165,0.329957 -0.08774,0.05049 -0.271144,-0.0605 -0.158937,0.0566 -0.18096,0.04765 -0.309944,0.09733 -0.263478,-0.04787 -0.182828,0.05749 -0.288836,-0.01756 -0.118376,-0.03616 -0.345849,0.03148 -0.176487,0.03587 -0.187949,-0.06481 -0.286958,-0.05579 -0.229706,-0.0036 -0.122229,0.03142 -0.216988,0.07166 -0.304027,-0.09229 -0.142472,0.02724 -0.231052,-0.07679 -0.190004,0.0059 -0.245282,-0.07498 -0.268467,-0.094 -0.319384,0.06612 -0.175542,0.05605 -0.252539,0.065 -0.227756,0.05371 -0.209069,0.06114 -0.158879,0.04836 -0.239202,0.08372 -0.181954,0.03023 -0.25488,-0.08895 -0.368732,0.02826 -0.143364,-0.04611 -0.169927,-0.05371 -0.342329,0.06498 -0.115297,0.02721 -0.276045,0.09007 -0.244241,-0.0731 -0.161914,0.05206 -0.354631,0.03204 -0.189782,0.0081 -0.218455,0.04476 -0.234152,0.04178 -0.22787,0.03729 -0.22762,-0.03914 -0.229717,0.02969 -0.233066,-0.01559 -0.206729,0.04084 -0.157271,0.05261 -0.192239,-0.05663 -0.200823,0.0295 -0.271108,0.09187 -0.317153,-0.08623 -0.243539,-0.01776 -0.22237,0.0012 -0.223439,0.02065 -0.169983,-0.05973 -0.2718,0.06204 -0.152771,0.05053 -0.290757,0.0785 -0.253134,-0.03978 -0.226562,0.0088 -0.154347,-0.05669 -0.271962,-0.07733 -0.250903,0.02984 -0.219293,0.02767 -0.138628,-0.04617 -0.181284,0.02501 -0.388146,0.06598 -0.12863,0.04321 -0.229144,0.07731 -0.257382,-0.08682 -0.250671,-0.06632 -0.210466,-0.06247 -0.149132,-0.04152 -0.253192,-0.09208 -0.332779,0.0259 -0.117385,-0.0401 -0.170635,-0.0074 -0.319365,-0.105537 -0.236525,0.06899 -0.211978,-0.0704 -0.16105,0.04137 -0.220038,0.06661 -0.221148,0.06301 -0.393698,0.03671 -0.123827,-0.04488 -0.230789,0.07666 -0.295269,0.04554 -0.202688,-0.04369 -0.182885,0.06065 -0.260781,0.07036 -0.257649,0.0346 -0.225509,-0.02267 -0.133679,0.03999 -0.305136,0.07539 -0.134691,-0.03397 -0.303135,-0.09602 -0.247813,0.045 -0.128552,0.02649 -0.234242,0.07642 -0.186559,0.01759 -0.265071,0.08569 -0.208317,-0.06531 -0.259434,-0.09802 -0.173677,-0.0134 -0.225508,0.05185 -0.409613,0.04016 -0.114515,0.03728 -0.330452,-0.0041 -0.113018,0.03341 -0.215736,-0.08101 -0.339904,-0.05479 -0.163991,0.04524 -0.230097,-0.07469 -0.146984,-0.03679 -0.264245,-0.0981 -0.268472,-0.08205 -0.246745,-0.05127 -0.218684,0.04311 -0.14184,-0.04458 -0.33146,0.06521 -0.113559,-0.01387 -0.234817,-0.0851 -0.332607,-0.06832 -0.127144,0.03946 -0.255695,0.08507 -0.310184,-0.02936 -0.127807,0.04286 -0.2327,0.07844 -0.283115,-0.07852 -0.131823,-0.02939 -0.365898,0.04044 -0.109593,0.03129 -0.194506,0.05136 -0.200184,0.0188 -0.295539,-0.109992 -0.190916,0.05513 -0.227703,0.07017 -0.382609,0.01735 -0.164892,-0.03473 -0.144519,0.03795 -0.247532,0.08177 -0.335331,0.03749 -0.201334,0.01511 -0.218576,0.0409 -0.146332,-0.05135 -0.255288,0.08106 -0.186527,0.05012 -0.38285,-0.0063 -0.156019,-0.04022 -0.138156,0.02038 -0.340804,-0.09046 -0.190827,0.04678 -0.257478,0.04124 -0.214384,-0.0551 -0.125461,-0.0061 -0.206408,0.04048 -0.273301,0.0858 -0.191481,0.03128 -0.375248,-0.09259 -0.128618,0.03883 -0.19626,0.05129 -0.301898,0.08359 -0.220842,0.06367 -0.285989,-0.07234 -0.12785,0.03004 -0.243984,0.07255 -0.200983,0.04811 -0.362436,-0.08699 -0.181453,0.02981 -0.19517,0.05469 -0.234323,0.06442 -0.298392,0.03542 -0.118093,0.0077 -0.362643,0.02806 -0.184812,0.02759 -0.159011,0.03815 -0.355987,0.01459 -0.197452,-0.01953 -0.155157,-0.06947 -0.213921,0.05725 -0.199425,-0.0845 -0.20301,-0.0797 -0.303042,0.07287 -0.262525,-0.08124 -0.234428,-0.0068 -0.125397,0.02328 -0.195395,-0.06975 -0.390779,-0.0016 -0.175413,0.0038 -0.168354,-0.07437 -0.300225,0.02192 -0.18245,0.03922 -0.284023,0.0056 -0.118834,0.01939 -0.301779,0.0624 -0.208747,-0.09099 -0.233503,0.0499 -0.186079,-0.08655 -0.313319,0.02143 -0.114275,-0.03836 -0.18083,-0.008 -0.258122,0.05979 -0.275233,0.06711 -0.300416,0.05225 -0.153384,-0.06871 -0.19052,0.01692 -0.327923,0.06468 -0.168826,-0.07854 -0.257448,0.05602 -0.197069,-0.0976 -0.183217,-0.07097 -0.282794,0.06242 -0.311741,-0.09904 -0.163532,0.03063 -0.262465,0.03494 -0.214141,0.03814 -0.217007,0.04106 -0.306412,0.02793 -0.261652,-0.04225 -0.11459,-0.06141 -0.184072,0.0128 -0.395677,-0.0363 -0.156202,0.01332 -0.275152,-0.01144 -0.124426,-0.0712 -0.3284,-0.0525 -0.180464,-0.0045 -0.203515,-0.101286 -0.141842,0.01313 -0.199939,0.0038 -0.222346,-0.0025 -0.357596,0.02707 -0.146763,-0.07564 -0.360577,-0.04857 -0.09827,-0.06112 -0.231324,-0.144367 -0.159786,0.01751 -0.314786,0.0086 -0.261864,-0.09186 -0.130103,-0.08855 -0.166953,0.01193 -0.34765,-0.04681 -0.09633,-0.06756 -0.307921,-0.133583 -0.109342,-0.105766 0.01772,-0.295653 -0.05035,-0.145657 -0.04356,-0.291403 0.05407,-0.16143 -0.07371,-0.213848 -0.07077,-0.262457 0.05326,-0.233097 0.03728,-0.233316 0.05006,-0.2037 0.04173,-0.242395 0.02619,-0.225987 -0.05765,-0.167468 0.05259,-0.172962 0.08919,-0.300289 0.0488,-0.157308 -0.09086,-0.252428 -0.06257,-0.187856 -0.0889,-0.250669 0.03992,-0.318671 0.05006,-0.14516 0.05252,-0.174332 0.009,-0.186434 0.09276,-0.361915 -0.01853,-0.236092 -0.02256,-0.114568 -0.07282,-0.215742 0.01984,-0.189673 -0.0399,-0.412589 0.03187,-0.151551 0.01471,-0.261148 -0.03226,-0.116546 -0.06691,-0.326029 -0.05055,-0.142803 -0.08068,-0.245966 0.06097,-0.177733 0.08915,-0.280361 0.0695,-0.212517 -0.07157,-0.244739 0.05744,-0.232261 -0.01626,-0.252883 -0.04346,-0.194154 0.05217,-0.154779 0.0839,-0.24622 -0.01191,-0.159105 0.06173,-0.378543 -0.04489,-0.122893 0.07922,-0.248459 -0.05493,-0.281081 -0.05478,-0.147296 -0.06566,-0.290197 -0.03704,-0.127657 -0.01725,-0.355768 0.0096,-0.179625 -0.05665,-0.158983 -0.07979,-0.232636 -0.0748,-0.24959 0.05229,-0.160332 0.03623,-0.188092 0.06852,-0.22866 -0.0112,-0.201652 0.09027,-0.384041 -0.03816,-0.201989 0.03397,-0.234535 0.02005,-0.226441 -0.04985,-0.199402 0.04012,-0.143355 0.04498,-0.195607 -0.103778,-0.317501 0.04689,-0.257957 -0.05607,-0.190176 -0.03356,-0.265541 0.05564,-0.167642 -0.01373,-0.147513 -0.0017,-0.196877 -0.100164,-0.283949 0.04296,-0.184176 0.03402,-0.205573 0.06013,-0.406922 0.02424,-0.0976 -0.01799,-0.346803 0.03712,-0.162475 0.03663,-0.146212 0.08405,-0.29319 -0.08138,-0.204238 0.05502,-0.183803 -0.08582,-0.324974 0.05046,-0.168394 0.04796,-0.175847 0.03694,-0.200878 -0.116784,-0.344551 -0.03398,-0.220629 0.05051,-0.18214 0.04831,-0.178293 -0.0793,-0.34013 -0.05652,-0.144909 0.05541,-0.257629 0.04501,-0.20702 0.0095,-0.27315 -0.09701,-0.194837 -0.07977,-0.16794 z"
       inkscape:path-effect="#path-effect3275"
       inkscape:original-d="M 26.265488,47.150168 H 81.962386 V 69.793493 H 26.265488 Z" />
    <path
       style="fill:none;fill-rule:evenodd;stroke:#ad5c1b;stroke-width:0.264583px;stroke-linecap:butt;stroke-linejoin:miter;stroke-opacity:1"
       d="m 82.190295,63.757485 c 0,0 -18.597432,-4.099685 -30.024277,-0.413457 -24.719882,7.974476 -25.604642,3.985583 -25.604642,3.985583"
       id="path3245-6"
       sodipodi:nodetypes="csc" />
    <path
       style="fill:none;fill-rule:evenodd;stroke:#ad5c1b;stroke-width:0.264583px;stroke-linecap:butt;stroke-linejoin:miter;stroke-opacity:1"
       d="m 82.261398,56.230342 c 0,0 -5.12434,2.802144 -13.549888,1.420138 -8.425548,-1.382004 -42.102974,-0.408842 -42.102974,-0.408842"
       id="path3247-4" />
    <path
       style="fill:none;fill-rule:evenodd;stroke:#ad5c1b;stroke-width:0.264583px;stroke-linecap:butt;stroke-linejoin:miter;stroke-opacity:1"
       d="m 82.487861,51.726697 c 0,0 -5.332632,3.226954 -22.92501,2.124112 C 41.970474,52.747968 26.696616,53.180776 26.696616,53.180776 v 0"
       id="path3249-8" />
    <path
       style="fill:none;fill-rule:evenodd;stroke:#ad5c1b;stroke-width:0.264583px;stroke-linecap:butt;stroke-linejoin:miter;stroke-opacity:1"
       d="m 82.370391,66.905971 c 0,0 -8.396504,-3.056528 -21.943824,0.327832 -13.547321,3.384363 -24.242211,3.442787 -24.242211,3.442787"
       id="path3251-5" />
    <path
       style="fill:none;fill-rule:evenodd;stroke:#ad5c1b;stroke-width:0.264583px;stroke-linecap:butt;stroke-linejoin:miter;stroke-opacity:1"
       d="m 26.730476,64.023023 c 0,0 28.086106,-3.797828 14.627975,-3.407421 l -14.763345,0.42827"
       id="path3253-6"
       sodipodi:nodetypes="csc" />
  </g>
</svg>
